<svg width="17" height="15" viewBox="0 0 17 15" fill="none" xmlns="http://www.w3.org/2000/svg">
<path d="M8.20414 14.9255L8.1987 14.9226L8.17982 14.9124C8.16375 14.9037 8.14076 14.8911 8.11131 14.8746C8.05243 14.8418 7.9677 14.7937 7.8608 14.7308C7.64708 14.605 7.34431 14.4199 6.98212 14.1791C6.25895 13.6984 5.29268 12.9917 4.32383 12.0886C2.40651 10.3013 0.375 7.64592 0.375 4.375C0.375 1.93495 2.428 0 4.90625 0C6.36365 0 7.6686 0.665906 8.5 1.70966C9.3314 0.665906 10.6363 0 12.0938 0C14.572 0 16.625 1.93495 16.625 4.375C16.625 7.64592 14.5935 10.3013 12.6762 12.0886C11.7073 12.9917 10.741 13.6984 10.0179 14.1791C9.65569 14.4199 9.35292 14.605 9.1392 14.7308C9.0323 14.7937 8.94757 14.8418 8.88869 14.8746C8.85924 14.8911 8.83625 14.9037 8.82018 14.9124L8.8013 14.9226L8.79586 14.9255L8.79356 14.9268C8.61026 15.0241 8.38974 15.0241 8.20644 14.9268L8.20414 14.9255Z" fill="#FF5500" style="fill:#FF5500;fill:color(display-p3 1.0000 0.3333 0.0000);fill-opacity:1;"/>
</svg>
