<svg width="21" height="20" viewBox="0 0 21 20" fill="none" xmlns="http://www.w3.org/2000/svg">
<path d="M8.77466 1.9429C9.54735 0.62493 11.4527 0.624932 12.2253 1.9429L13.9512 4.88664C14.2332 5.36761 14.7031 5.70904 15.2477 5.8286L18.5807 6.5603C20.0729 6.8879 20.6617 8.69996 19.647 9.8421L17.3806 12.3931C17.0103 12.8099 16.8308 13.3624 16.8854 13.9173L17.2195 17.3132C17.369 18.8337 15.8276 19.9536 14.4278 19.3415L11.3013 17.9744C10.7904 17.751 10.2096 17.751 9.69873 17.9744L6.5722 19.3415C5.1724 19.9536 3.63097 18.8337 3.78054 17.3132L4.11459 13.9173C4.16917 13.3624 3.98967 12.8099 3.61938 12.3931L1.35302 9.8421C0.338336 8.69995 0.927111 6.8879 2.41935 6.5603L5.75233 5.8286C6.29689 5.70904 6.76683 5.36761 7.04881 4.88664L8.77466 1.9429Z" fill="#FFCE22" style="fill:#FFCE22;fill:color(display-p3 1.0000 0.8097 0.1350);fill-opacity:1;"/>
</svg>
